PathFileType	4	(X/Y/Z)	6_coords_data.trc
DataRate	CameraRate	NumFrames	NumMarkers	Units	OrigDataRate	OrigDataStartFrame	OrigNumFrames
30.0	30.0	8	21	m	30.0	59	68
Frame#	Time	THUMB_TIP	THUMB_IP	THUMB_MCP	THUMB_CMC	INDEX_TIP	INDEX_DIP	INDEX_PIP	INDEX_MCP	MIDDLE_TIP	MIDDLE_DIP	MIDDLE_PIP	MIDDLE_MCP	RING_TIP	RING_DIP	RING_PIP	RING_MCP	PINKY_TIP	PINKY_DIP	PINKY_PIP	PINKY_MCP	WRIST
X1	Y1	Z1	X2	Y2	Z2	X3	Y3	Z3	X4	Y4	Z4	X5	Y5	Z5	X6	Y6	Z6	X7	Y7	Z7	X8	Y8	Z8	X9	Y9	Z9	X10	Y10	Z10	X11	Y11	Z11	X12	Y12	Z12	X13	Y13	Z13	X14	Y14	Z14	X15	Y15	Z15	X16	Y16	Z16	X17	Y17	Z17	X18	Y18	Z18	X19	Y19	Z19	X20	Y20	Z20	X21	Y21	Z21
58	1.9333333333333333	0.08123760223388672	-0.1116510009765625	1.0338499755859376	0.06244179916381836	-0.09766290283203125	1.0504000244140625	0.04080379867553711	-0.09527729797363281	1.07618994140625	0.019647199630737303	-0.07000270080566406	1.0891199951171875	0.07401789855957032	-0.10612699890136719	0.9825490112304688	0.05454859924316406	-0.10936299896240234	0.9939119873046875	0.034166698455810544	-0.11095600128173828	1.0088099975585938	0.007999829769134522	-0.1058759994506836	1.0401300048828126	0.08047339630126953	-0.08175050354003906	0.9757839965820313	0.058727298736572266	-0.08491230010986328	0.9847620239257813	0.03077549934387207	-0.08726799774169922	0.9997520141601562	-0.000901238024234771	-0.08468299865722656	1.0290699462890625	0.08282579803466797	-0.05851029968261719	0.9825360107421875	0.06210380172729492	-0.05939120101928711	0.9915189819335938	0.035644500732421876	-0.06063869857788086	1.0050700073242187	0.0008880959749221801	-0.060606498718261716	1.0286400146484376	0.06991349792480468	-0.03748360061645508	1.005510009765625	0.050778900146484375	-0.03611439895629883	1.0104099731445313	0.03126889991760254	-0.03616109848022461	1.0173099975585937	0.006273139953613281	-0.03901599884033203	1.03372998046875	-0.013790200233459473	-0.04994929885864258	1.10643994140625
59	1.9666666666666666	0.08087680053710937	-0.10964199829101562	1.031949951171875	0.062148399353027343	-0.09590859985351563	1.048989990234375	0.041274898529052736	-0.0941261978149414	1.0751199951171875	0.019944799423217772	-0.06908529663085937	1.08893994140625	0.07339119720458985	-0.1034469985961914	0.98152001953125	0.05399829864501953	-0.10701000213623046	0.9928480224609375	0.033701900482177735	-0.10897899627685546	1.0078300170898438	0.00794892978668213	-0.10455599975585937	1.0394200439453125	0.07983899688720703	-0.07956620025634766	0.9748820190429688	0.05817390060424805	-0.08281279754638672	0.9839539794921875	0.03023240089416504	-0.08538459777832032	0.9991790161132813	-0.001123039960861206	-0.0833228988647461	1.0286600341796874	0.0822113037109375	-0.05646229934692383	0.9819819946289062	0.06163140106201172	-0.057438400268554686	0.9910880126953125	0.035246601104736326	-0.05890499877929688	1.0046900024414063	0.00040346199274063105	-0.05926499938964844	1.028550048828125	0.06973829650878906	-0.03642229843139649	1.0055800170898437	0.05065909957885742	-0.03491059875488281	1.01047998046875	0.03107509994506836	-0.0348661003112793	1.017239990234375	0.006194729804992676	-0.03765859985351563	1.0338699951171875	-0.013446299552917481	-0.049011199951171876	1.10643994140625
60	2.0	0.08027940368652343	-0.10822000122070312	1.029989990234375	0.06179069900512695	-0.09475650024414063	1.0478199462890625	0.041256900787353515	-0.09349980163574219	1.0741300048828124	0.01998740005493164	-0.06855799865722656	1.0884599609375	0.07242859649658204	-0.10185600280761718	0.9804929809570313	0.05307580184936524	-0.10551999664306641	0.9918090209960938	0.032833499908447264	-0.10766699981689454	1.0068900146484374	0.007592889785766601	-0.1034739990234375	1.0388800048828124	0.07922339630126952	-0.07792099761962891	0.9745980224609375	0.05757429885864258	-0.0812322998046875	0.9835549926757813	0.029720199584960937	-0.08395339965820313	0.9986900024414063	-0.001722959995269775	-0.08213860321044922	1.028449951171875	0.0816281967163086	-0.05532870101928711	0.9816810302734374	0.060915599822998046	-0.056247501373291015	0.9907069702148438	0.03472359848022461	-0.057708099365234376	1.0043499755859375	9.507290087640001e-06	-0.05809820175170898	1.0283499755859375	0.06938330078125	-0.035983100891113284	1.00552001953125	0.050275699615478515	-0.03423189926147461	1.0105999755859374	0.03072100067138672	-0.034005599975585936	1.01722998046875	0.0059101200103759775	-0.03662139892578125	1.0338900146484375	-0.013046500205993652	-0.04837670135498047	1.1063800048828125
61	2.033333333333333	0.07959609985351562	-0.10738400268554688	1.02893994140625	0.06141680145263672	-0.09415579986572266	1.0468900146484375	0.040785999298095704	-0.09314119720458984	1.073489990234375	0.020083499908447267	-0.06830139923095703	1.0878900146484376	0.07115899658203124	-0.10083300018310547	0.9790689697265625	0.05191379928588867	-0.10443900299072266	0.9904940185546875	0.031765600204467774	-0.10665699768066406	1.0056799926757813	0.006988659858703613	-0.10250499725341797	1.038030029296875	0.07874739837646484	-0.07664330291748046	0.9741019897460937	0.05708530044555664	-0.07995290374755859	0.9830830078125	0.02924169921875	-0.08268479919433594	0.9981519775390625	-0.002264739990234375	-0.08105000305175782	1.0278499755859376	0.08111190032958984	-0.05465560150146485	0.9811279907226562	0.060441898345947265	-0.0554827995300293	0.990281982421875	0.03426089859008789	-0.056798198699951175	1.00402001953125	-0.00014347299933433502	-0.056976898193359375	1.028239990234375	0.06889309692382813	-0.035374401092529296	1.0050499877929688	0.04987189865112305	-0.03351300048828125	1.0100399780273437	0.030343500137329102	-0.033181800842285156	1.0168400268554687	0.005581019878387451	-0.03564009857177734	1.0338299560546875	-0.012909199714660645	-0.04795909881591797	1.1061300048828124
62	2.066666666666667	0.07914450073242188	-0.10694599914550781	1.02775	0.060985000610351565	-0.0938239974975586	1.0461099853515625	0.04057870101928711	-0.09292340087890626	1.07243994140625	0.01993280029296875	-0.06798269653320313	1.0872900390625	0.07010060119628907	-0.09983650207519532	0.9778049926757812	0.05086740112304688	-0.10340499877929688	0.9892269897460938	0.030950700759887696	-0.10561399841308594	1.0044199829101563	0.006313039779663086	-0.10172299957275391	1.0372099609375	0.07794619750976563	-0.07550050354003907	0.9730469970703125	0.0564197998046875	-0.07881700134277343	0.9821810302734375	0.02848349952697754	-0.08155670166015624	0.9973779907226562	-0.002923589944839477	-0.08004399871826172	1.02731005859375	0.08029969787597656	-0.05362689971923828	0.9801589965820312	0.05979819869995117	-0.05445190048217773	0.9893720092773437	0.0335979995727539	-0.05578120040893555	1.0033599853515625	-0.0009294689893722531	-0.0561327018737793	1.02775	0.06841619873046875	-0.034668701171875	1.00477001953125	0.04947790145874023	-0.0327333984375	1.0095499877929688	0.029995599746704103	-0.032326301574707034	1.0164500122070312	0.005252260208129883	-0.03480830001831055	1.0335899658203125	-0.012863800048828125	-0.04780279922485352	1.1055899658203125
63	2.1	0.07862709808349609	-0.10609500122070313	1.02672998046875	0.060551300048828124	-0.09335320281982422	1.0452099609375	0.04030559921264648	-0.09257569885253907	1.071719970703125	0.01981839942932129	-0.06785479736328125	1.086760009765625	0.06931770324707032	-0.0986592025756836	0.9769949951171875	0.050084999084472656	-0.10250700378417969	0.9884329833984375	0.030128200531005858	-0.10489299774169922	1.0036900024414062	0.005820819854736328	-0.10127300262451172	1.036550048828125	0.07701180267333985	-0.07442430114746093	0.9722349853515625	0.05549340057373047	-0.07782849884033204	0.9814769897460938	0.027610300064086914	-0.08076090240478516	0.9967570190429688	-0.003486150026321411	-0.07957900238037109	1.0269000244140625	0.07890080261230469	-0.052441898345947265	0.9788729858398437	0.05854180145263672	-0.05344800186157227	0.9882449951171876	0.03250260162353515	-0.05496260070800781	1.0026199951171875	-0.001712779998779296	-0.055634700775146484	1.0276700439453126	0.0672520980834961	-0.033868400573730466	1.0036400146484374	0.04831399917602539	-0.03196929931640625	1.00875	0.028872400283813476	-0.031661600112915037	1.0158300170898438	0.00442494010925293	-0.03434410095214844	1.0333900146484376	-0.01288599967956543	-0.047570301055908204	1.1055899658203125
64	2.1333333333333333	0.07826940155029297	-0.10570999908447265	1.0259200439453124	0.06031829833984375	-0.0932156982421875	1.04452001953125	0.04017720031738281	-0.09251300048828125	1.0711600341796874	0.019587200164794923	-0.06768479919433594	1.0864300537109375	0.06920839691162109	-0.0983583984375	0.9769010009765625	0.049883201599121095	-0.10228199768066407	0.9881790161132813	0.02996470069885254	-0.10476699829101563	1.0034000244140624	0.005559050083160401	-0.10123699951171874	1.036199951171875	0.0766343002319336	-0.07422940063476563	0.9719429931640625	0.05507320022583008	-0.07765760040283202	0.98118701171875	0.027237199783325197	-0.08063420104980469	0.996426025390625	-0.003727109909057617	-0.07955030059814452	1.0265999755859374	0.07802839660644531	-0.0521692008972168	0.9779760131835937	0.05765380096435547	-0.05322969818115234	0.9875449829101562	0.031746200561523434	-0.054834598541259764	1.0019600219726563	-0.002158910036087036	-0.05562459945678711	1.0274200439453125	0.06647969818115235	-0.033773601531982424	1.003010009765625	0.047572898864746097	-0.03185300064086914	1.0079000244140626	0.02814979934692383	-0.03158169937133789	1.01525	0.003898809909820556	-0.03434189987182617	1.0330799560546875	-0.01297700023651123	-0.0475796012878418	1.105469970703125
65	2.1666666666666665	0.07820210266113281	-0.10622699737548828	1.0255400390625	0.06019720077514648	-0.09358080291748047	1.0443399658203125	0.040119499206542966	-0.09289759826660156	1.070719970703125	0.01968779945373535	-0.06816940307617188	1.0861099853515626	0.06870970153808593	-0.09897599792480469	0.976135986328125	0.049329700469970705	-0.10271299743652344	0.9876129760742187	0.029491899490356445	-0.10511699676513672	1.0027999877929688	0.005411499977111816	-0.10138700103759765	1.035949951171875	0.07657070159912109	-0.07463300323486328	0.9717490234375	0.054979801177978516	-0.07799030303955078	0.9809569702148437	0.02711109924316406	-0.08090339660644531	0.9961430053710938	-0.003919320106506348	-0.07966079711914062	1.0261800537109376	0.07782540130615234	-0.052937000274658204	0.9774240112304687	0.05738090133666992	-0.053825698852539065	0.9871179809570313	0.03156279945373535	-0.05522669982910156	1.0015399780273437	-0.0023433198928833007	-0.05578120040893555	1.0270899658203125	0.06641339874267578	-0.034228000640869144	1.0025499877929687	0.04739609909057617	-0.03223310089111328	1.0076599731445313	0.028021400451660156	-0.031866100311279295	1.0149500122070312	0.003975729942321777	-0.03451580047607422	1.0328699951171876	-0.012855799674987792	-0.04774029922485352	1.1051099853515625
